<mxfile host="app.diagrams.net" modified="2021-04-05T14:17:08.572Z" agent="5.0 (Macintosh; Intel Mac OS X 10_12_6) AppleWebKit/537.36 (KHTML, like Gecko) Chrome/87.0.4280.88 Safari/537.36" etag="xZ1pEKCumzZzKx-GuiUe" version="14.4.3" type="github">
  <diagram id="C5RBs43oDa-KdzZeNtuy" name="Page-1">
    <mxGraphModel dx="1113" dy="733" grid="1" gridSize="10" guides="1" tooltips="1" connect="1" arrows="1" fold="1" page="1" pageScale="1" pageWidth="1169" pageHeight="1654" math="0" shadow="0">
      <root>
        <mxCell id="WIyWlLk6GJQsqaUBKTNV-0" />
        <mxCell id="WIyWlLk6GJQsqaUBKTNV-1" parent="WIyWlLk6GJQsqaUBKTNV-0" />
        <mxCell id="aFLrCPwvdx65K-hx4MIi-45" value="" style="rounded=0;whiteSpace=wrap;html=1;fillColor=#f5f5f5;strokeColor=#666666;fontColor=#333333;" vertex="1" parent="WIyWlLk6GJQsqaUBKTNV-1">
          <mxGeometry x="7.99" y="8" width="464" height="722" as="geometry" />
        </mxCell>
        <mxCell id="aFLrCPwvdx65K-hx4MIi-26" value="" style="edgeStyle=orthogonalEdgeStyle;rounded=0;orthogonalLoop=1;jettySize=auto;html=1;entryX=0.5;entryY=0;entryDx=0;entryDy=0;" edge="1" parent="WIyWlLk6GJQsqaUBKTNV-1" source="aFLrCPwvdx65K-hx4MIi-1" target="aFLrCPwvdx65K-hx4MIi-2">
          <mxGeometry relative="1" as="geometry" />
        </mxCell>
        <mxCell id="aFLrCPwvdx65K-hx4MIi-1" value="开始" style="strokeWidth=2;html=1;shape=mxgraph.flowchart.start_2;whiteSpace=wrap;fillColor=#e1d5e7;strokeColor=#9673a6;" vertex="1" parent="WIyWlLk6GJQsqaUBKTNV-1">
          <mxGeometry x="140" y="19" width="40" height="40" as="geometry" />
        </mxCell>
        <mxCell id="aFLrCPwvdx65K-hx4MIi-48" style="edgeStyle=orthogonalEdgeStyle;rounded=0;orthogonalLoop=1;jettySize=auto;html=1;" edge="1" parent="WIyWlLk6GJQsqaUBKTNV-1" source="aFLrCPwvdx65K-hx4MIi-2" target="aFLrCPwvdx65K-hx4MIi-47">
          <mxGeometry relative="1" as="geometry" />
        </mxCell>
        <mxCell id="aFLrCPwvdx65K-hx4MIi-2" value="beforeSleep" style="rounded=1;whiteSpace=wrap;html=1;absoluteArcSize=1;arcSize=14;strokeWidth=2;fillColor=#d5e8d4;strokeColor=#82b366;" vertex="1" parent="WIyWlLk6GJQsqaUBKTNV-1">
          <mxGeometry x="110.00000000000001" y="80" width="100" height="40" as="geometry" />
        </mxCell>
        <mxCell id="aFLrCPwvdx65K-hx4MIi-13" style="edgeStyle=orthogonalEdgeStyle;rounded=0;orthogonalLoop=1;jettySize=auto;html=1;entryX=0.5;entryY=0;entryDx=0;entryDy=0;exitX=0.5;exitY=1;exitDx=0;exitDy=0;exitPerimeter=0;" edge="1" parent="WIyWlLk6GJQsqaUBKTNV-1" source="aFLrCPwvdx65K-hx4MIi-3" target="aFLrCPwvdx65K-hx4MIi-8">
          <mxGeometry relative="1" as="geometry" />
        </mxCell>
        <mxCell id="aFLrCPwvdx65K-hx4MIi-23" style="edgeStyle=orthogonalEdgeStyle;rounded=0;orthogonalLoop=1;jettySize=auto;html=1;entryX=0.5;entryY=0;entryDx=0;entryDy=0;exitX=0.5;exitY=1;exitDx=0;exitDy=0;exitPerimeter=0;" edge="1" parent="WIyWlLk6GJQsqaUBKTNV-1" source="aFLrCPwvdx65K-hx4MIi-3" target="aFLrCPwvdx65K-hx4MIi-7">
          <mxGeometry relative="1" as="geometry" />
        </mxCell>
        <mxCell id="aFLrCPwvdx65K-hx4MIi-3" value="等待超时或文件事件" style="strokeWidth=2;html=1;shape=mxgraph.flowchart.decision;whiteSpace=wrap;fillColor=#f8cecc;strokeColor=#b85450;" vertex="1" parent="WIyWlLk6GJQsqaUBKTNV-1">
          <mxGeometry x="124.37" y="200" width="71.25" height="60" as="geometry" />
        </mxCell>
        <mxCell id="aFLrCPwvdx65K-hx4MIi-18" value="" style="edgeStyle=orthogonalEdgeStyle;rounded=0;orthogonalLoop=1;jettySize=auto;html=1;" edge="1" parent="WIyWlLk6GJQsqaUBKTNV-1" source="aFLrCPwvdx65K-hx4MIi-7" target="aFLrCPwvdx65K-hx4MIi-12">
          <mxGeometry relative="1" as="geometry" />
        </mxCell>
        <mxCell id="aFLrCPwvdx65K-hx4MIi-7" value="afterSleep" style="rounded=1;whiteSpace=wrap;html=1;absoluteArcSize=1;arcSize=14;strokeWidth=2;fillColor=#d5e8d4;strokeColor=#82b366;" vertex="1" parent="WIyWlLk6GJQsqaUBKTNV-1">
          <mxGeometry x="40" y="300" width="100" height="40" as="geometry" />
        </mxCell>
        <mxCell id="aFLrCPwvdx65K-hx4MIi-15" value="" style="edgeStyle=orthogonalEdgeStyle;rounded=0;orthogonalLoop=1;jettySize=auto;html=1;" edge="1" parent="WIyWlLk6GJQsqaUBKTNV-1" source="aFLrCPwvdx65K-hx4MIi-8" target="aFLrCPwvdx65K-hx4MIi-14">
          <mxGeometry relative="1" as="geometry" />
        </mxCell>
        <mxCell id="aFLrCPwvdx65K-hx4MIi-8" value="afterSleep" style="rounded=1;whiteSpace=wrap;html=1;absoluteArcSize=1;arcSize=14;strokeWidth=2;fillColor=#d5e8d4;strokeColor=#82b366;" vertex="1" parent="WIyWlLk6GJQsqaUBKTNV-1">
          <mxGeometry x="259.99" y="300" width="100" height="40" as="geometry" />
        </mxCell>
        <mxCell id="aFLrCPwvdx65K-hx4MIi-37" style="edgeStyle=orthogonalEdgeStyle;rounded=0;orthogonalLoop=1;jettySize=auto;html=1;entryX=0.5;entryY=0;entryDx=0;entryDy=0;entryPerimeter=0;" edge="1" parent="WIyWlLk6GJQsqaUBKTNV-1" source="aFLrCPwvdx65K-hx4MIi-12" target="aFLrCPwvdx65K-hx4MIi-36">
          <mxGeometry relative="1" as="geometry" />
        </mxCell>
        <mxCell id="aFLrCPwvdx65K-hx4MIi-12" value="时间事件回调函数" style="rounded=1;whiteSpace=wrap;html=1;absoluteArcSize=1;arcSize=14;strokeWidth=2;fillColor=#ffe6cc;strokeColor=#d79b00;" vertex="1" parent="WIyWlLk6GJQsqaUBKTNV-1">
          <mxGeometry x="40" y="360" width="100" height="40" as="geometry" />
        </mxCell>
        <mxCell id="aFLrCPwvdx65K-hx4MIi-24" style="edgeStyle=orthogonalEdgeStyle;rounded=0;orthogonalLoop=1;jettySize=auto;html=1;entryX=0.5;entryY=0;entryDx=0;entryDy=0;" edge="1" parent="WIyWlLk6GJQsqaUBKTNV-1" source="aFLrCPwvdx65K-hx4MIi-14" target="aFLrCPwvdx65K-hx4MIi-16">
          <mxGeometry relative="1" as="geometry">
            <mxPoint x="230" y="450" as="targetPoint" />
          </mxGeometry>
        </mxCell>
        <mxCell id="aFLrCPwvdx65K-hx4MIi-25" style="edgeStyle=orthogonalEdgeStyle;rounded=0;orthogonalLoop=1;jettySize=auto;html=1;entryX=0.5;entryY=0;entryDx=0;entryDy=0;" edge="1" parent="WIyWlLk6GJQsqaUBKTNV-1" source="aFLrCPwvdx65K-hx4MIi-14" target="aFLrCPwvdx65K-hx4MIi-17">
          <mxGeometry relative="1" as="geometry" />
        </mxCell>
        <mxCell id="aFLrCPwvdx65K-hx4MIi-14" value="注册事件类型" style="strokeWidth=2;html=1;shape=mxgraph.flowchart.decision;whiteSpace=wrap;fillColor=#f8cecc;strokeColor=#b85450;" vertex="1" parent="WIyWlLk6GJQsqaUBKTNV-1">
          <mxGeometry x="274.37" y="360" width="71.25" height="60" as="geometry" />
        </mxCell>
        <mxCell id="aFLrCPwvdx65K-hx4MIi-28" value="" style="edgeStyle=orthogonalEdgeStyle;rounded=0;orthogonalLoop=1;jettySize=auto;html=1;" edge="1" parent="WIyWlLk6GJQsqaUBKTNV-1" source="aFLrCPwvdx65K-hx4MIi-16" target="aFLrCPwvdx65K-hx4MIi-27">
          <mxGeometry relative="1" as="geometry" />
        </mxCell>
        <mxCell id="aFLrCPwvdx65K-hx4MIi-16" value="读事件回调函数" style="rounded=1;whiteSpace=wrap;html=1;absoluteArcSize=1;arcSize=14;strokeWidth=2;fillColor=#fff2cc;strokeColor=#d6b656;" vertex="1" parent="WIyWlLk6GJQsqaUBKTNV-1">
          <mxGeometry x="180" y="460" width="100" height="40" as="geometry" />
        </mxCell>
        <mxCell id="aFLrCPwvdx65K-hx4MIi-30" value="" style="edgeStyle=orthogonalEdgeStyle;rounded=0;orthogonalLoop=1;jettySize=auto;html=1;" edge="1" parent="WIyWlLk6GJQsqaUBKTNV-1" source="aFLrCPwvdx65K-hx4MIi-17" target="aFLrCPwvdx65K-hx4MIi-29">
          <mxGeometry relative="1" as="geometry" />
        </mxCell>
        <mxCell id="aFLrCPwvdx65K-hx4MIi-17" value="写事件回调函数" style="rounded=1;whiteSpace=wrap;html=1;absoluteArcSize=1;arcSize=14;strokeWidth=2;fillColor=#fff2cc;strokeColor=#d6b656;" vertex="1" parent="WIyWlLk6GJQsqaUBKTNV-1">
          <mxGeometry x="340" y="460" width="100" height="40" as="geometry" />
        </mxCell>
        <mxCell id="aFLrCPwvdx65K-hx4MIi-34" value="" style="edgeStyle=orthogonalEdgeStyle;rounded=0;orthogonalLoop=1;jettySize=auto;html=1;" edge="1" parent="WIyWlLk6GJQsqaUBKTNV-1" source="aFLrCPwvdx65K-hx4MIi-27" target="aFLrCPwvdx65K-hx4MIi-31">
          <mxGeometry relative="1" as="geometry" />
        </mxCell>
        <mxCell id="aFLrCPwvdx65K-hx4MIi-27" value="写事件回调函数" style="rounded=1;whiteSpace=wrap;html=1;absoluteArcSize=1;arcSize=14;strokeWidth=2;fillColor=#fff2cc;strokeColor=#d6b656;" vertex="1" parent="WIyWlLk6GJQsqaUBKTNV-1">
          <mxGeometry x="179.99" y="520" width="100" height="40" as="geometry" />
        </mxCell>
        <mxCell id="aFLrCPwvdx65K-hx4MIi-33" value="" style="edgeStyle=orthogonalEdgeStyle;rounded=0;orthogonalLoop=1;jettySize=auto;html=1;" edge="1" parent="WIyWlLk6GJQsqaUBKTNV-1" source="aFLrCPwvdx65K-hx4MIi-29" target="aFLrCPwvdx65K-hx4MIi-32">
          <mxGeometry relative="1" as="geometry" />
        </mxCell>
        <mxCell id="aFLrCPwvdx65K-hx4MIi-29" value="读事件回调函数" style="rounded=1;whiteSpace=wrap;html=1;absoluteArcSize=1;arcSize=14;strokeWidth=2;fillColor=#fff2cc;strokeColor=#d6b656;" vertex="1" parent="WIyWlLk6GJQsqaUBKTNV-1">
          <mxGeometry x="340" y="520" width="100" height="40" as="geometry" />
        </mxCell>
        <mxCell id="aFLrCPwvdx65K-hx4MIi-38" style="edgeStyle=orthogonalEdgeStyle;rounded=0;orthogonalLoop=1;jettySize=auto;html=1;entryX=0.5;entryY=0;entryDx=0;entryDy=0;entryPerimeter=0;" edge="1" parent="WIyWlLk6GJQsqaUBKTNV-1" source="aFLrCPwvdx65K-hx4MIi-31" target="aFLrCPwvdx65K-hx4MIi-36">
          <mxGeometry relative="1" as="geometry" />
        </mxCell>
        <mxCell id="aFLrCPwvdx65K-hx4MIi-31" value="时间事件回调函数" style="rounded=1;whiteSpace=wrap;html=1;absoluteArcSize=1;arcSize=14;strokeWidth=2;fillColor=#ffe6cc;strokeColor=#d79b00;" vertex="1" parent="WIyWlLk6GJQsqaUBKTNV-1">
          <mxGeometry x="179.99" y="580" width="100" height="40" as="geometry" />
        </mxCell>
        <mxCell id="aFLrCPwvdx65K-hx4MIi-39" style="edgeStyle=orthogonalEdgeStyle;rounded=0;orthogonalLoop=1;jettySize=auto;html=1;entryX=0.5;entryY=0;entryDx=0;entryDy=0;entryPerimeter=0;" edge="1" parent="WIyWlLk6GJQsqaUBKTNV-1" source="aFLrCPwvdx65K-hx4MIi-32" target="aFLrCPwvdx65K-hx4MIi-36">
          <mxGeometry relative="1" as="geometry">
            <Array as="points">
              <mxPoint x="390" y="660" />
              <mxPoint x="160" y="660" />
            </Array>
          </mxGeometry>
        </mxCell>
        <mxCell id="aFLrCPwvdx65K-hx4MIi-32" value="时间事件回调函数" style="rounded=1;whiteSpace=wrap;html=1;absoluteArcSize=1;arcSize=14;strokeWidth=2;fillColor=#ffe6cc;strokeColor=#d79b00;" vertex="1" parent="WIyWlLk6GJQsqaUBKTNV-1">
          <mxGeometry x="340" y="580" width="100" height="40" as="geometry" />
        </mxCell>
        <mxCell id="aFLrCPwvdx65K-hx4MIi-44" style="edgeStyle=orthogonalEdgeStyle;rounded=0;orthogonalLoop=1;jettySize=auto;html=1;entryX=0;entryY=0.5;entryDx=0;entryDy=0;entryPerimeter=0;dashed=1;" edge="1" parent="WIyWlLk6GJQsqaUBKTNV-1" source="aFLrCPwvdx65K-hx4MIi-36" target="aFLrCPwvdx65K-hx4MIi-1">
          <mxGeometry relative="1" as="geometry">
            <Array as="points">
              <mxPoint x="20" y="700" />
              <mxPoint x="20" y="39" />
            </Array>
          </mxGeometry>
        </mxCell>
        <mxCell id="aFLrCPwvdx65K-hx4MIi-36" value="重新开始" style="strokeWidth=2;html=1;shape=mxgraph.flowchart.terminator;whiteSpace=wrap;fillColor=#e1d5e7;strokeColor=#9673a6;" vertex="1" parent="WIyWlLk6GJQsqaUBKTNV-1">
          <mxGeometry x="109.99" y="680" width="100" height="40" as="geometry" />
        </mxCell>
        <mxCell id="aFLrCPwvdx65K-hx4MIi-40" value="超时" style="text;html=1;resizable=0;autosize=1;align=center;verticalAlign=middle;points=[];fillColor=none;strokeColor=none;rounded=0;" vertex="1" parent="WIyWlLk6GJQsqaUBKTNV-1">
          <mxGeometry x="84.37" y="260" width="40" height="20" as="geometry" />
        </mxCell>
        <mxCell id="aFLrCPwvdx65K-hx4MIi-41" value="文件事件" style="text;html=1;resizable=0;autosize=1;align=center;verticalAlign=middle;points=[];fillColor=none;strokeColor=none;rounded=0;" vertex="1" parent="WIyWlLk6GJQsqaUBKTNV-1">
          <mxGeometry x="224.37" y="260" width="60" height="20" as="geometry" />
        </mxCell>
        <mxCell id="aFLrCPwvdx65K-hx4MIi-42" value="注册读事件" style="text;html=1;resizable=0;autosize=1;align=center;verticalAlign=middle;points=[];fillColor=none;strokeColor=none;rounded=0;" vertex="1" parent="WIyWlLk6GJQsqaUBKTNV-1">
          <mxGeometry x="199.99" y="420" width="80" height="20" as="geometry" />
        </mxCell>
        <mxCell id="aFLrCPwvdx65K-hx4MIi-43" value="注册写事件" style="text;html=1;resizable=0;autosize=1;align=center;verticalAlign=middle;points=[];fillColor=none;strokeColor=none;rounded=0;" vertex="1" parent="WIyWlLk6GJQsqaUBKTNV-1">
          <mxGeometry x="334" y="420" width="80" height="20" as="geometry" />
        </mxCell>
        <mxCell id="aFLrCPwvdx65K-hx4MIi-49" style="edgeStyle=orthogonalEdgeStyle;rounded=0;orthogonalLoop=1;jettySize=auto;html=1;entryX=0.5;entryY=0;entryDx=0;entryDy=0;entryPerimeter=0;" edge="1" parent="WIyWlLk6GJQsqaUBKTNV-1" source="aFLrCPwvdx65K-hx4MIi-47" target="aFLrCPwvdx65K-hx4MIi-3">
          <mxGeometry relative="1" as="geometry" />
        </mxCell>
        <mxCell id="aFLrCPwvdx65K-hx4MIi-47" value="计算最近的时间事件" style="rounded=1;whiteSpace=wrap;html=1;absoluteArcSize=1;arcSize=14;strokeWidth=2;fillColor=#d5e8d4;strokeColor=#82b366;" vertex="1" parent="WIyWlLk6GJQsqaUBKTNV-1">
          <mxGeometry x="110" y="140" width="100" height="40" as="geometry" />
        </mxCell>
        <mxCell id="aFLrCPwvdx65K-hx4MIi-50" value="事件" style="rounded=1;whiteSpace=wrap;html=1;" vertex="1" parent="WIyWlLk6GJQsqaUBKTNV-1">
          <mxGeometry x="640" y="160" width="80" height="40" as="geometry" />
        </mxCell>
        <mxCell id="aFLrCPwvdx65K-hx4MIi-51" value="" style="rounded=1;whiteSpace=wrap;html=1;" vertex="1" parent="WIyWlLk6GJQsqaUBKTNV-1">
          <mxGeometry x="720" y="160" width="80" height="40" as="geometry" />
        </mxCell>
        <mxCell id="aFLrCPwvdx65K-hx4MIi-52" value="" style="rounded=1;whiteSpace=wrap;html=1;" vertex="1" parent="WIyWlLk6GJQsqaUBKTNV-1">
          <mxGeometry x="800" y="160" width="80" height="40" as="geometry" />
        </mxCell>
        <mxCell id="aFLrCPwvdx65K-hx4MIi-53" value="" style="rounded=1;whiteSpace=wrap;html=1;" vertex="1" parent="WIyWlLk6GJQsqaUBKTNV-1">
          <mxGeometry x="880" y="160" width="80" height="40" as="geometry" />
        </mxCell>
      </root>
    </mxGraphModel>
  </diagram>
</mxfile>
